# xmcd
#
# Track frame offsets:
#  183
#  19185
#  35615
#  48943
#  62240
#  78043
#  94163
#  109045
#  127930
#  145608
#  158393
#  170415
#  186218
#  199095
#  214453
#  230373
#  250135
#  264928
#  282860
#
# Disc length: 4148 seconds
#
# Revision: 0
# Processed by: cddbd v1.4PL0 Copyright (c) Steve Scherf et al.
# Submitted via: AltoMP3_Maker 3.0
#
DISCID=fb103213
DTITLE=Ray Charles - I Can't Stop Loving You
DYEAR=1900
DGENRE=
TTITLE0=I can't stop loving you
TTITLE1=Georgia on my mind
TTITLE2=Crying time
TTITLE3=Take this chain from my heart
TTITLE4=You win again
TTITLE5=Your Cheatin' heart
TTITLE6=Here we go again
TTITLE7=Baby. It's cold outside
TTITLE8=Ruby
TTITLE9=Yesterday
TTITLE10=Together again
TTITLE11=It makes no difference now
TTITLE12=Makin' believe
TTITLE13=born to lose
TTITLE14=cry
TTITLE15=That lucky old sun
TTITLE16=You don't know me
TTITLE17=Careless love
TTITLE18=Makin' whoopee (live)
EXTD=
EXTT0=
EXTT1=
EXTT2=
EXTT3=
EXTT4=
EXTT5=
EXTT6=
EXTT7=
EXTT8=
EXTT9=
EXTT10=
EXTT11=
EXTT12=
EXTT13=
EXTT14=
EXTT15=
EXTT16=
EXTT17=
EXTT18=
PLAYORDER=
